<?xml version="1.0" encoding="UTF-8" standalone="no"?>
<!-- Created with Inkscape (http://www.inkscape.org/) -->

<svg
   xmlns:dc="http://purl.org/dc/elements/1.1/"
   xmlns:cc="http://creativecommons.org/ns#"
   xmlns:rdf="http://www.w3.org/1999/02/22-rdf-syntax-ns#"
   xmlns:svg="http://www.w3.org/2000/svg"
   xmlns="http://www.w3.org/2000/svg"
   xmlns:xlink="http://www.w3.org/1999/xlink"
   xmlns:sodipodi="http://sodipodi.sourceforge.net/DTD/sodipodi-0.dtd"
   xmlns:inkscape="http://www.inkscape.org/namespaces/inkscape"
   width="210mm"
   height="297mm"
   viewBox="0 0 744.09448819 1052.3622047"
   id="svg2"
   version="1.1"
   inkscape:version="0.91 r13725"
   inkscape:export-filename="C:\Users\Key\Google Drive\Drawing\selfie flat.png"
   inkscape:export-xdpi="90"
   inkscape:export-ydpi="90"
   sodipodi:docname="selfie flat.svg">
  <defs
     id="defs4">
    <clipPath
       clipPathUnits="userSpaceOnUse"
       id="clipPath4275">
      <path
         style="opacity:1;fill:#000000;fill-opacity:1;stroke:none;stroke-width:10;stroke-linejoin:miter;stroke-miterlimit:4;stroke-dasharray:none;stroke-opacity:1"
         d="m 341.53257,559.86233 c 0,0 28.63783,26.16295 70.00357,25.8094 41.36575,-0.35356 77.07464,-11.31371 77.07464,-11.31371 l 9.8995,-71.77134 -182.7871,3.53553"
         id="path4277"
         inkscape:connector-curvature="0" />
    </clipPath>
    <clipPath
       clipPathUnits="userSpaceOnUse"
       id="clipPath4279">
      <path
         style="opacity:1;fill:#000000;fill-opacity:1;stroke:none;stroke-width:10;stroke-linejoin:miter;stroke-miterlimit:4;stroke-dasharray:none;stroke-opacity:1"
         d="m 341.53257,559.86233 c 0,0 28.63783,26.16295 70.00357,25.8094 41.36575,-0.35356 77.07464,-11.31371 77.07464,-11.31371 l 9.8995,-71.77134 -182.7871,3.53553"
         id="path4281"
         inkscape:connector-curvature="0" />
    </clipPath>
    <clipPath
       clipPathUnits="userSpaceOnUse"
       id="clipPath4428">
      <circle
         r="236.22047"
         cy="496.06299"
         cx="408.66141"
         id="circle4430"
         style="display:inline;opacity:1;fill:none;fill-opacity:1;stroke:#ffe680;stroke-width:10;stroke-linejoin:miter;stroke-miterlimit:4;stroke-dasharray:none;stroke-opacity:1" />
    </clipPath>
    <clipPath
       clipPathUnits="userSpaceOnUse"
       id="clipPath4601">
      <rect
         y="233.53256"
         x="146.37111"
         height="525.38031"
         width="525.38031"
         id="rect4603"
         style="display:inline;opacity:1;fill:none;fill-opacity:1;stroke:#fee582;stroke-width:10.00000095;stroke-linecap:round;stroke-linejoin:miter;stroke-miterlimit:4;stroke-dasharray:none;stroke-opacity:1" />
    </clipPath>
    <clipPath
       clipPathUnits="userSpaceOnUse"
       id="clipPath4607">
      <rect
         y="233.53256"
         x="146.37111"
         height="525.38031"
         width="525.38031"
         id="rect4609"
         style="display:inline;opacity:1;fill:none;fill-opacity:1;stroke:#fee582;stroke-width:10.00000095;stroke-linecap:round;stroke-linejoin:miter;stroke-miterlimit:4;stroke-dasharray:none;stroke-opacity:1" />
    </clipPath>
    <clipPath
       clipPathUnits="userSpaceOnUse"
       id="clipPath4613">
      <rect
         y="233.53256"
         x="146.37111"
         height="525.38031"
         width="525.38031"
         id="rect4615"
         style="display:inline;opacity:1;fill:none;fill-opacity:1;stroke:#fee582;stroke-width:10.00000095;stroke-linecap:round;stroke-linejoin:miter;stroke-miterlimit:4;stroke-dasharray:none;stroke-opacity:1" />
    </clipPath>
    <clipPath
       clipPathUnits="userSpaceOnUse"
       id="clipPath4617">
      <rect
         y="233.53256"
         x="146.37111"
         height="525.38031"
         width="525.38031"
         id="rect4619"
         style="display:inline;opacity:1;fill:none;fill-opacity:1;stroke:#fee582;stroke-width:10.00000095;stroke-linecap:round;stroke-linejoin:miter;stroke-miterlimit:4;stroke-dasharray:none;stroke-opacity:1" />
    </clipPath>
    <clipPath
       clipPathUnits="userSpaceOnUse"
       id="clipPath4627">
      <rect
         y="276.28229"
         x="250.94975"
         height="402.72171"
         width="302.06842"
         id="rect4629"
         style="display:inline;opacity:1;fill:none;fill-opacity:1;stroke:#fee582;stroke-width:10.00000095;stroke-linecap:round;stroke-linejoin:miter;stroke-miterlimit:4;stroke-dasharray:none;stroke-opacity:1" />
    </clipPath>
  </defs>
  <sodipodi:namedview
     id="base"
     pagecolor="#ffffff"
     bordercolor="#666666"
     borderopacity="1.0"
     inkscape:pageopacity="0.0"
     inkscape:pageshadow="2"
     inkscape:zoom="1"
     inkscape:cx="368.29874"
     inkscape:cy="532.12549"
     inkscape:document-units="px"
     inkscape:current-layer="layer1"
     showgrid="false" />
  <metadata
     id="metadata7">
    <rdf:RDF>
      <cc:Work
         rdf:about="">
        <dc:format>image/svg+xml</dc:format>
        <dc:type
           rdf:resource="http://purl.org/dc/dcmitype/StillImage" />
      </cc:Work>
    </rdf:RDF>
  </metadata>
  <g
     inkscape:groupmode="layer"
     id="layer2"
     inkscape:label="back ground"
     style="display:inline">
    <rect
       y="238.3622"
       x="118.5"
       height="521"
       width="296"
       id="rect4347"
       style="display:inline;opacity:1;fill:#ddc8db;fill-opacity:1;stroke:none;stroke-width:6;stroke-linecap:round;stroke-linejoin:miter;stroke-miterlimit:4;stroke-dasharray:none;stroke-opacity:1"
       clip-path="url(#clipPath4617)"
       inkscape:export-xdpi="90"
       inkscape:export-ydpi="90"
       inkscape:export-filename="C:\Users\Key\Google Drive\Drawing\selfie flat.png" />
    <rect
       style="display:inline;opacity:1;fill:#dd4814;fill-opacity:1;stroke:none;stroke-width:6;stroke-linecap:round;stroke-linejoin:miter;stroke-miterlimit:4;stroke-dasharray:none;stroke-opacity:1"
       id="rect4334"
       width="296"
       height="521"
       x="412.5"
       y="238.3622"
       clip-path="url(#clipPath4613)"
       inkscape:export-xdpi="90"
       inkscape:export-ydpi="90"
       inkscape:export-filename="C:\Users\Key\Google Drive\Drawing\selfie flat.png" />
  </g>
  <g
     inkscape:groupmode="layer"
     id="layer5"
     inkscape:label="Layer 2"
     style="display:inline">
    <path
       style="display:inline;opacity:1;fill:#500f4a;fill-opacity:1;stroke:none;stroke-width:10;stroke-linejoin:miter;stroke-miterlimit:4;stroke-dasharray:none;stroke-opacity:1"
       d="m 408.66992,626.45021 c -73.21285,0.049 -144.09329,16.53661 -203.32392,26.97957 42.26982,57.93498 119.40971,82.75885 203.31611,82.85342 83.90107,-0.0802 204.14097,-17.83998 246.42823,-75.76187 -59.2086,-10.45918 -173.18626,-34.0091 -246.42042,-34.07112 z"
       id="path4140"
       inkscape:connector-curvature="0"
       clip-path="url(#clipPath4627)"
       inkscape:export-xdpi="90"
       inkscape:export-ydpi="90"
       transform="matrix(1.7392758,0,0,1.3045741,-290.09972,-126.89815)"
       sodipodi:nodetypes="ccccc"
       inkscape:export-filename="C:\Users\Key\Google Drive\Drawing\selfie flat.png" />
    <path
       style="display:inline;opacity:1;fill:#d2ad6c;fill-opacity:1;stroke:none;stroke-width:10;stroke-linejoin:miter;stroke-miterlimit:4;stroke-dasharray:none;stroke-opacity:1"
       d="m 332.63915,566.54604 c 0.10166,9.93202 0.0791,4.08418 -0.39119,38.59268 -1.00233,73.55691 -42.00435,110.77767 -42.00435,110.77767 l 112.1663,0 0,-140.4542 c -0.8859,0.02 -1.77214,0.0354 -2.65864,0.0468 -23.53622,-0.0168 -46.66083,-3.10513 -67.11212,-8.96306 z"
       id="path4176"
       inkscape:connector-curvature="0"
       sodipodi:nodetypes="csccccc"
       inkscape:export-xdpi="90"
       inkscape:export-ydpi="90"
       inkscape:export-filename="C:\Users\Key\Google Drive\Drawing\selfie flat.png" />
    <use
       style="display:inline"
       x="0"
       y="0"
       xlink:href="#path4176"
       id="use4311"
       transform="matrix(-1,0,0,1,804.67396,5.588066e-8)"
       width="100%"
       height="100%"
       inkscape:export-xdpi="90"
       inkscape:export-ydpi="90"
       inkscape:export-filename="C:\Users\Key\Google Drive\Drawing\selfie flat.png" />
    <g
       id="g4283"
       style="display:inline;fill:#000000;fill-opacity:0.36686389"
       transform="matrix(1.6972792,0,0,1.6972792,-291.72425,-352.81905)"
       inkscape:export-xdpi="90"
       inkscape:export-ydpi="90"
       inkscape:export-filename="C:\Users\Key\Google Drive\Drawing\selfie flat.png">
      <path
         clip-path="url(#clipPath4279)"
         sodipodi:nodetypes="csccccc"
         inkscape:connector-curvature="0"
         id="path4263"
         d="m 449.99023,537.66992 c -0.0599,6.61835 -0.0466,2.72156 0.23047,25.7168 0.59055,49.01574 24.74805,73.81836 24.74805,73.81836 l -66.08594,0 0,-93.59375 c 0.52195,0.0133 1.04411,0.0237 1.56641,0.0312 13.86703,-0.0112 27.49155,-2.06915 39.54101,-5.97266 z"
         style="opacity:1;fill:#000000;fill-opacity:0.36686389;stroke:none;stroke-width:10;stroke-linejoin:miter;stroke-miterlimit:4;stroke-dasharray:none;stroke-opacity:1" />
      <path
         clip-path="url(#clipPath4275)"
         style="opacity:1;fill:#000000;fill-opacity:0.36686389;stroke:none;stroke-width:10;stroke-linejoin:miter;stroke-miterlimit:4;stroke-dasharray:none;stroke-opacity:1"
         d="m 367.86133,537.66992 c 0.0599,6.61835 0.0466,2.72156 -0.23047,25.7168 -0.59055,49.01574 -24.74805,73.81836 -24.74805,73.81836 l 66.08594,0 0,-93.59375 c -0.52195,0.0133 -1.04411,0.0237 -1.56641,0.0312 -13.86703,-0.0112 -27.49155,-2.06915 -39.54101,-5.97266 z"
         id="path4265"
         inkscape:connector-curvature="0"
         sodipodi:nodetypes="csccccc" />
    </g>
    <path
       style="display:inline;opacity:1;fill:#d2ad6c;fill-opacity:1;stroke:none;stroke-width:10;stroke-linejoin:miter;stroke-miterlimit:4;stroke-dasharray:none;stroke-opacity:1"
       d="m 320.35726,299.70157 167.25608,0 c 21.95987,0 39.63875,18.99105 39.63875,42.58084 l 0,190.12492 c 0,42.24279 -43.72547,76.20751 -65.68503,76.33302 L 352.7704,609.3621 c -21.95956,0.12563 -72.0519,-29.73783 -72.0519,-76.95477 l 0,-190.12492 c 0,-23.58979 17.67889,-42.58084 39.63876,-42.58084 z"
       id="rect4233"
       inkscape:connector-curvature="0"
       sodipodi:nodetypes="sssssssss"
       inkscape:export-xdpi="90"
       inkscape:export-ydpi="90"
       inkscape:export-filename="C:\Users\Key\Google Drive\Drawing\selfie flat.png" />
    <g
       style="display:inline"
       id="g4293"
       transform="matrix(2.032523,0,0,2.032523,-426.15973,-516.61408)"
       inkscape:export-xdpi="90"
       inkscape:export-ydpi="90"
       inkscape:export-filename="C:\Users\Key\Google Drive\Drawing\selfie flat.png">
      <circle
         r="8.75"
         cy="459.11221"
         cx="381.25"
         id="path4287"
         style="opacity:1;fill:#000000;fill-opacity:1;stroke:none;stroke-width:10;stroke-linejoin:miter;stroke-miterlimit:4;stroke-dasharray:none;stroke-opacity:1" />
      <circle
         cy="456.62476"
         cx="378.39053"
         id="path4291"
         style="opacity:1;fill:#ffffff;fill-opacity:1;stroke:none;stroke-width:10;stroke-linejoin:miter;stroke-miterlimit:4;stroke-dasharray:none;stroke-opacity:1"
         r="4.3310294" />
    </g>
    <use
       style="display:inline"
       x="0"
       y="0"
       xlink:href="#g4293"
       id="use4309"
       transform="translate(119.53157,5.5881572e-8)"
       width="100%"
       height="100%"
       inkscape:export-xdpi="90"
       inkscape:export-ydpi="90"
       inkscape:export-filename="C:\Users\Key\Google Drive\Drawing\selfie flat.png" />
    <path
       style="display:inline;opacity:1;fill:#ffffff;fill-opacity:1;stroke:none;stroke-width:10;stroke-linejoin:miter;stroke-miterlimit:4;stroke-dasharray:none;stroke-opacity:1"
       d="m 363.00121,505.59895 c 7.53168,-2.65199 77.54444,-4.34929 92.07739,2.1216 2.97023,5.304 0,56.01021 -46.25085,43.70494 -46.25086,-12.30527 -48.47854,-36.59758 -45.82654,-45.82654 z"
       id="path4313"
       inkscape:connector-curvature="0"
       sodipodi:nodetypes="ccsc"
       inkscape:export-xdpi="90"
       inkscape:export-ydpi="90"
       inkscape:export-filename="C:\Users\Key\Google Drive\Drawing\selfie flat.png" />
    <path
       style="display:inline;opacity:1;fill:none;fill-opacity:1;stroke:#2a2a4e;stroke-width:6;stroke-linecap:round;stroke-linejoin:miter;stroke-miterlimit:4;stroke-dasharray:none;stroke-opacity:1"
       id="path4315"
       transform="scale(1,-1)"
       sodipodi:type="arc"
       sodipodi:cx="348.35419"
       sodipodi:cy="-393.8692"
       sodipodi:rx="33.010624"
       sodipodi:ry="21.337666"
       sodipodi:start="0"
       sodipodi:end="3.1402613"
       sodipodi:open="true"
       d="m 381.36481,-393.8692 a 33.010624,21.337666 0 0 1 -32.98865,21.33766 33.010624,21.337666 0 0 1 -33.03257,-21.30925"
       inkscape:export-xdpi="90"
       inkscape:export-ydpi="90"
       inkscape:export-filename="C:\Users\Key\Google Drive\Drawing\selfie flat.png" />
    <use
       style="display:inline"
       x="0"
       y="0"
       xlink:href="#path4315"
       id="use4317"
       transform="matrix(-1,0,0,1,818.91248,5.588066e-8)"
       width="100%"
       height="100%"
       inkscape:export-xdpi="90"
       inkscape:export-ydpi="90"
       inkscape:export-filename="C:\Users\Key\Google Drive\Drawing\selfie flat.png" />
    <path
       style="display:inline;opacity:1;fill:#d2ad6c;fill-opacity:1;stroke:none;stroke-width:6;stroke-linecap:round;stroke-linejoin:miter;stroke-miterlimit:4;stroke-dasharray:none;stroke-opacity:1"
       d="m 521.95784,449.11705 c 0,0 6.44565,46.14304 22.08142,27.96078 16.29272,-18.94618 16.06459,-59.47805 13.84368,-73.30985 -2.4625,-18.33594 -17.55082,-22.28295 -29.24192,-13.75442 -16.20255,11.8196 -6.68318,59.10349 -6.68318,59.10349 z"
       id="path4319"
       inkscape:connector-curvature="0"
       sodipodi:nodetypes="cscsc"
       inkscape:export-xdpi="90"
       inkscape:export-ydpi="90"
       inkscape:export-filename="C:\Users\Key\Google Drive\Drawing\selfie flat.png" />
    <use
       style="display:inline"
       x="0"
       y="0"
       xlink:href="#path4319"
       id="use4321"
       transform="matrix(-1,0,0,1,806.57588,5.588066e-8)"
       width="100%"
       height="100%"
       inkscape:export-xdpi="90"
       inkscape:export-ydpi="90"
       inkscape:export-filename="C:\Users\Key\Google Drive\Drawing\selfie flat.png" />
    <path
       style="display:inline;opacity:1;fill:#d2ad6c;fill-opacity:1;stroke:none;stroke-width:6;stroke-linecap:round;stroke-linejoin:miter;stroke-miterlimit:4;stroke-dasharray:none;stroke-opacity:1"
       id="path4352"
       sodipodi:type="arc"
       sodipodi:cx="402.20288"
       sodipodi:cy="715.21613"
       sodipodi:rx="111.61927"
       sodipodi:ry="35.745842"
       sodipodi:start="0"
       sodipodi:end="3.1402662"
       sodipodi:open="true"
       d="M 513.82215,715.21613 A 111.61927,35.745842 0 0 1 402.27691,750.96196 111.61927,35.745842 0 0 1 290.58371,715.26354"
       inkscape:export-xdpi="90"
       inkscape:export-ydpi="90"
       inkscape:export-filename="C:\Users\Key\Google Drive\Drawing\selfie flat.png" />
    <path
       style="display:inline;opacity:1;fill:#2a2a4e;fill-opacity:1;stroke:none;stroke-width:6;stroke-linecap:round;stroke-linejoin:miter;stroke-miterlimit:4;stroke-dasharray:none;stroke-opacity:1"
       d="m 363.48852,241.10601 c -37.80168,-0.42479 -48.94597,51.23 -48.94597,51.23 0,0 -23.20469,-24.59888 -43.43641,-11.03231 -45.39309,30.43874 10.10869,137.23002 10.10869,137.23002 0,0 -5.41444,-72.41393 21.71835,-87.03382 12.52257,16.12415 73.44074,27.87864 73.44074,27.87864 0,0 1.17185,0.42433 -10.95939,-8.4864 -12.13123,-8.91071 -13.69426,-35.64285 -13.69426,-35.64285 0,0 39.32406,14.93425 77.09029,29.70238 17.87808,6.99104 48.85651,-4.38153 78.16104,-20.34084 l 8.36042,15.67332 c 8.22289,15.41895 10.20356,85.37446 10.20356,85.37446 0,0 7.65751,-34.69815 13.13403,-55.24776 7.67633,-28.8041 -10.24086,-50.56434 -13.71084,-56.26546 31.11414,-19.22933 56.34764,-40.59223 55.29749,-45.14697 l -32.48037,6.36479 c -32.18723,6.30737 -103.31172,-0.42431 -160.44592,-28.0051 -8.92721,-4.3095 -16.84115,-6.17343 -23.84145,-6.2521 z"
       id="path4325"
       inkscape:connector-curvature="0"
       sodipodi:nodetypes="scscccscscccsccsss"
       inkscape:export-xdpi="90"
       inkscape:export-ydpi="90"
       inkscape:export-filename="C:\Users\Key\Google Drive\Drawing\selfie flat.png" />
    <path
       style="opacity:0.4;fill:#000000;fill-opacity:1;stroke:none;stroke-width:3;stroke-linecap:round;stroke-linejoin:miter;stroke-miterlimit:4;stroke-dasharray:none;stroke-opacity:1"
       d="m 349.43715,277.32111 c -28.88416,0.34329 -3.50604,66.25555 -3.50604,66.25555 0,0 8.53456,1.385 -3.91882,-0.22932 -12.24863,-1.5878 -36.1984,-28.47498 -36.98672,-29.36312 -1.14927,-0.32135 -0.9265,-0.25744 -2.2193,-0.61917 -44.44147,-12.43438 -21.69944,104.12491 -21.62995,104.48061 -0.2608,-3.7635 -4.63221,-72.1271 21.75734,-86.34651 12.52257,16.12416 73.4409,27.88018 73.4409,27.88018 0,0 1.17231,0.42335 -10.95894,-8.48737 -12.13123,-8.91071 -13.69546,-35.64393 -13.69546,-35.64393 0,0 39.32339,14.93641 77.08962,29.70454 4.51162,1.76423 9.85996,2.356 15.80267,2.00274 l 1.40905,-0.61153 c 1.45678,0.0901 2.98629,0.071 4.56856,-0.0332 16.63224,-2.49538 36.87579,-11.07557 56.38207,-21.69873 l 0.11467,0.21402 c 0.0315,-0.0185 0.27773,-0.16052 0.27773,-0.16052 l 18.77109,-11.26214 c 1.97001,-1.22684 29.67758,-21.05007 31.59261,-22.28732 -93.2706,34.50457 -127.30827,38.6918 -197.49776,-11.652 -3.65647,-2.62261 -7.8053,-2.17838 -10.79331,-2.14286 z m -44.41158,36.66311 c 38.4186,10.7427 -0.14269,-0.15797 -0.14269,-0.15797 0,0 0.12955,0.14312 0.14269,0.15797 z"
       id="path4558"
       inkscape:connector-curvature="0"
       sodipodi:nodetypes="scscscccscsccccccccssccc"
       inkscape:export-xdpi="90"
       inkscape:export-ydpi="90"
       inkscape:export-filename="C:\Users\Key\Google Drive\Drawing\selfie flat.png" />
  </g>
  <g
     inkscape:label="Layer 1"
     inkscape:groupmode="layer"
     id="layer1"
     style="display:inline">
    <rect
       style="display:inline;opacity:0.13699999;fill:#ddc8db;fill-opacity:1;stroke:none;stroke-width:6;stroke-linecap:round;stroke-linejoin:miter;stroke-miterlimit:4;stroke-dasharray:none;stroke-opacity:1"
       id="rect4357"
       width="296"
       height="521"
       x="116.5"
       y="238.3622"
       clip-path="url(#clipPath4607)"
       inkscape:export-xdpi="90"
       inkscape:export-ydpi="90"
       inkscape:export-filename="C:\Users\Key\Google Drive\Drawing\selfie flat.png" />
    <rect
       y="238.3622"
       x="412.5"
       height="521"
       width="296"
       id="rect4354"
       style="display:inline;opacity:0.3;fill:#dd4814;fill-opacity:1;stroke:none;stroke-width:6;stroke-linecap:round;stroke-linejoin:miter;stroke-miterlimit:4;stroke-dasharray:none;stroke-opacity:1"
       clip-path="url(#clipPath4601)"
       inkscape:export-xdpi="90"
       inkscape:export-ydpi="90"
       inkscape:export-filename="C:\Users\Key\Google Drive\Drawing\selfie flat.png" />
    <rect
       style="display:inline;opacity:1;fill:none;fill-opacity:1;stroke:#fee582;stroke-width:10.00000095;stroke-linecap:round;stroke-linejoin:miter;stroke-miterlimit:4;stroke-dasharray:none;stroke-opacity:1"
       id="rect4578"
       width="525.38031"
       height="525.38031"
       x="146.37111"
       y="233.53256"
       inkscape:export-filename="C:\Users\Key\Google Drive\Drawing\selfie flat.png"
       inkscape:export-xdpi="90"
       inkscape:export-ydpi="90" />
    <text
       xml:space="preserve"
       style="font-style:normal;font-variant:normal;font-weight:normal;font-stretch:semi-expanded;font-size:21.19933128px;line-height:125%;font-family:Ravie;-inkscape-font-specification:'Ravie Semi-Expanded';letter-spacing:0px;word-spacing:0px;display:inline;fill:#ddc8db;fill-opacity:1;stroke:none;stroke-width:1px;stroke-linecap:butt;stroke-linejoin:miter;stroke-opacity:1"
       x="548.78888"
       y="617.32092"
       id="text4574"
       sodipodi:linespacing="125%"
       inkscape:export-xdpi="90"
       inkscape:export-ydpi="90"
       inkscape:export-filename="C:\Users\Key\Google Drive\Drawing\selfie flat.png"><tspan
         sodipodi:role="line"
         id="tspan4576"
         x="548.78888"
         y="617.32092"
         style="font-style:normal;font-variant:normal;font-weight:normal;font-stretch:semi-expanded;font-family:Ravie;-inkscape-font-specification:'Ravie Semi-Expanded';fill:#ddc8db;fill-opacity:1">Big Z</tspan></text>
  </g>
</svg>
